<svg xmlns="http://www.w3.org/2000/svg" viewBox="0 0 212.91 158.59"><defs><style>.cls-1{fill:#e61e4f;}.cls-2{fill:#ffe20a;}.cls-3{fill:#476178;}.cls-4{fill:#c86b1d;}.cls-5{fill:#b23818;}.cls-6{fill:#6dc9ee;}.cls-7{fill:#0db6eb;}.cls-8{fill:#fee905;}.cls-9{fill:#e52331;}</style></defs><g id="Calque_2" data-name="Calque 2"><g id="Calque_1-2" data-name="Calque 1"><path class="cls-1" d="M108.12,0A37.79,37.79,0,0,0,91.34,71.66a11,11,0,0,1,3.12,7.67v24.93a6.75,6.75,0,0,0,6.75,6.76H115a6.76,6.76,0,0,0,6.77-6.76V79.33a11,11,0,0,1,3.11-7.67A37.79,37.79,0,0,0,108.12,0ZM119,96.81H97.28V81.36H119Z"/><path class="cls-2" d="M111.46,1.11l7.8,13a49,49,0,0,1,7,25.28h0a49,49,0,0,1-8.45,27.5l-4.06,6a13.62,13.62,0,0,0-2.32,7.59v.89h-6.67v-.89a13.62,13.62,0,0,0-2.32-7.59l-4.07-6A49.11,49.11,0,0,1,90,39.37h0a49,49,0,0,1,7-25.28l7.8-13S105.64,0,108.12,0,111.46,1.11,111.46,1.11Z"/><rect class="cls-3" x="94.46" y="81.36" width="2.83" height="15.45"/><rect class="cls-3" x="118.96" y="81.36" width="2.83" height="15.45"/><path class="cls-4" d="M94.46,96.81v7.45a6.76,6.76,0,0,0,6.75,6.76H115a6.77,6.77,0,0,0,6.77-6.76V96.81Z"/><path class="cls-4" d="M121.79,96.81v7.45A6.77,6.77,0,0,1,115,111H101.21a6.76,6.76,0,0,1-6.75-6.76V96.81Z"/><path class="cls-5" d="M109.19,111h-8a6.75,6.75,0,0,1-6.75-6.76V96.81h8v7.45C102.44,108,105.62,109.16,109.19,111Z"/><path class="cls-6" d="M163.65,25.32a9.27,9.27,0,0,1-9.28,9.27H126.56a7.59,7.59,0,0,1-.6-15.16,12.53,12.53,0,0,1,23.84-2.18,9.28,9.28,0,0,1,13.85,8.07Z"/><path class="cls-7" d="M138.22,9.51a12.56,12.56,0,0,1,2.61.27,12.56,12.56,0,0,0-9.64,9.65,7.59,7.59,0,0,0,.61,15.16h-5.24a7.59,7.59,0,0,1-.6-15.16A12.54,12.54,0,0,1,138.22,9.51Z"/><path class="cls-6" d="M105.71,66.49a9.27,9.27,0,0,1-9.28,9.27H68.62A7.6,7.6,0,0,1,68,60.59a12.54,12.54,0,0,1,23.85-2.17,9.28,9.28,0,0,1,13.85,8.07Z"/><path class="cls-7" d="M80.28,50.68a12.56,12.56,0,0,1,2.61.27,12.56,12.56,0,0,0-9.64,9.64,7.6,7.6,0,0,0,.61,15.17H68.62A7.6,7.6,0,0,1,68,60.59,12.54,12.54,0,0,1,80.28,50.68Z"/><path class="cls-8" d="M108.85,87.83A2,2,0,0,1,108.2,86h-.15a2,2,0,0,1-.65,1.82c-.92.92-2.6,2.6-2.6,4.42s1.66,4.56,1.66,4.56h3.33s1.66-2.73,1.66-4.56S109.77,88.75,108.85,87.83Z"/><path class="cls-9" d="M15.59,82.84A15.59,15.59,0,1,1,0,98.43,15.6,15.6,0,0,1,15.59,82.84ZM3.82,98.43A11.78,11.78,0,1,0,15.59,86.65,11.78,11.78,0,0,0,3.82,98.43Z"/><path class="cls-9" d="M53.69,109.43v9.78a1.91,1.91,0,0,1-3.82,0v-9.78a5.37,5.37,0,0,0-10.74,0v9.78a1.91,1.91,0,1,1-3.81,0V102.15a1.9,1.9,0,0,1,3.8-.15,9.17,9.17,0,0,1,14.57,7.43Z"/><path class="cls-9" d="M24.25,120.83H6.93a1.82,1.82,0,0,1,0-3.64H24.25a1.82,1.82,0,0,1,0,3.64Z"/><path class="cls-9" d="M56.72,136.57v9.79a1.91,1.91,0,0,1-3.82,0v-9.79a5.37,5.37,0,1,0-10.74,0v9.79a1.91,1.91,0,0,1-3.82,0v-9.79a5.37,5.37,0,0,0-10.74,0v9.78a1.91,1.91,0,0,1-3.82,0V129.29a1.91,1.91,0,0,1,3.81-.14A9,9,0,0,1,33,127.39a9.18,9.18,0,0,1,7.28,3.6,9.18,9.18,0,0,1,16.47,5.58Z"/><path class="cls-9" d="M63.48,123.13,62,125.68a1.91,1.91,0,0,1-1.64.93,2,2,0,0,1-1-.27,1.92,1.92,0,0,1-.66-2.62l1.52-2.54a1.9,1.9,0,1,1,3.27,1.95Z"/><path class="cls-9" d="M85.23,137.83h0v8.51a1.91,1.91,0,1,1-3.82,0v-.46a10.44,10.44,0,1,1,0-16.13v-.46a1.91,1.91,0,0,1,3.82,0v8.53Zm-3.82,0a6.62,6.62,0,1,0-6.62,6.64,6.63,6.63,0,0,0,6.62-6.64Z"/><path class="cls-9" d="M110,137.83A10.44,10.44,0,0,1,93,145.89v10.79a1.91,1.91,0,0,1-3.82,0V137.84h0V129.3a1.91,1.91,0,1,1,3.82,0v.46A10.44,10.44,0,0,1,110,137.83Zm-3.82,0a6.62,6.62,0,0,0-13.24,0v0a6.62,6.62,0,0,0,13.24,0Z"/><path class="cls-9" d="M134,137.83a10.44,10.44,0,0,1-17.06,8.06v10.79a1.91,1.91,0,0,1-3.82,0V137.84h0V129.3a1.91,1.91,0,1,1,3.82,0v.46A10.44,10.44,0,0,1,134,137.83Zm-3.82,0a6.62,6.62,0,0,0-13.24,0v0a6.62,6.62,0,0,0,13.24,0Z"/><path class="cls-9" d="M158.38,137.83a1.9,1.9,0,0,1-1.91,1.9H141.6a6.62,6.62,0,0,0,11,2.78,1.91,1.91,0,0,1,2.7,2.7A10.43,10.43,0,0,1,137.51,138s0-.1,0-.15,0-.11,0-.15a10.44,10.44,0,0,1,20.87.15Zm-4.09-1.91a6.62,6.62,0,0,0-12.69,0Z"/><path class="cls-9" d="M166.21,119v27.38a1.91,1.91,0,1,1-3.81,0V119a1.91,1.91,0,0,1,3.81,0Z"/><path class="cls-9" d="M174.9,119v27.38a1.91,1.91,0,1,1-3.81,0V119a1.91,1.91,0,0,1,3.81,0Z"/><path class="cls-9" d="M200.31,137.83a1.91,1.91,0,0,1-1.91,1.9H183.53a6.62,6.62,0,0,0,11,2.78,1.91,1.91,0,0,1,2.7,2.7A10.43,10.43,0,0,1,179.44,138a.76.76,0,0,1,0-.15.71.71,0,0,1,0-.15,10.44,10.44,0,0,1,20.87.15Zm-4.09-1.91a6.62,6.62,0,0,0-12.69,0Z"/><path class="cls-9" d="M212.91,146.15a2,2,0,1,1-2-2.05A2,2,0,0,1,212.91,146.15Zm-4-5.93V119a1.91,1.91,0,0,1,3.82,0v21.25a1.91,1.91,0,1,1-3.82,0Z"/></g></g></svg>