<svg xmlns="http://www.w3.org/2000/svg" viewBox="0 0 417.26 122.59"><defs><style>.cls-1{fill:#e61e4f;}.cls-2{fill:#ffe20a;}.cls-3{fill:#476178;}.cls-4{fill:#c86b1d;}.cls-5{fill:#b23818;}.cls-6{fill:#6dc9ee;}.cls-7{fill:#0db6eb;}.cls-8{fill:#fee905;}.cls-9{fill:#e52331;}.cls-10{fill:none;stroke:#e52331;stroke-linecap:round;stroke-linejoin:round;stroke-width:4px;}</style></defs><g id="Calque_2" data-name="Calque 2"><g id="Calque_1-2" data-name="Calque 1"><path class="cls-1" d="M52,0A41.73,41.73,0,0,0,33.48,79.13a12.17,12.17,0,0,1,3.44,8.47v27.53a7.46,7.46,0,0,0,7.46,7.46H59.63a7.46,7.46,0,0,0,7.47-7.46V87.6a12.17,12.17,0,0,1,3.44-8.47A41.73,41.73,0,0,0,52,0ZM64,106.9H40V89.84H64Z"/><path class="cls-2" d="M55.69,1.23,64.3,15.55a54.2,54.2,0,0,1,7.76,27.93h0a54.19,54.19,0,0,1-9.32,30.36l-4.48,6.64a14.89,14.89,0,0,0-2.57,8.38v1H48.33v-1a14.89,14.89,0,0,0-2.57-8.38l-4.48-6.64A54.2,54.2,0,0,1,32,43.48h0a54.21,54.21,0,0,1,7.77-27.93L48.33,1.23S49.27,0,52,0,55.69,1.23,55.69,1.23Z"/><rect class="cls-3" x="36.92" y="89.84" width="3.12" height="17.06"/><rect class="cls-3" x="63.98" y="89.84" width="3.12" height="17.06"/><path class="cls-4" d="M36.92,106.9v8.23a7.46,7.46,0,0,0,7.46,7.46H59.63a7.46,7.46,0,0,0,7.47-7.46V106.9Z"/><path class="cls-4" d="M67.1,106.9v8.23a7.46,7.46,0,0,1-7.47,7.46H44.38a7.46,7.46,0,0,1-7.46-7.46V106.9Z"/><path class="cls-5" d="M53.19,122.59H44.38a7.46,7.46,0,0,1-7.46-7.46V106.9h8.81v8.23C45.73,119.25,49.25,120.54,53.19,122.59Z"/><path class="cls-6" d="M113.32,28A10.24,10.24,0,0,1,103.08,38.2H72.37a8.39,8.39,0,0,1-.67-16.75A13.84,13.84,0,0,1,98,19.05,10.24,10.24,0,0,1,113.32,28Z"/><path class="cls-7" d="M85.24,10.5a13.66,13.66,0,0,1,2.88.3A13.87,13.87,0,0,0,77.48,21.45a8.39,8.39,0,0,0,.67,16.75H72.37a8.39,8.39,0,0,1-.67-16.75A13.85,13.85,0,0,1,85.24,10.5Z"/><path class="cls-6" d="M49.34,73.42A10.24,10.24,0,0,1,39.1,83.66H8.39a8.39,8.39,0,0,1-.67-16.75,13.84,13.84,0,0,1,26.33-2.4,10.24,10.24,0,0,1,15.29,8.91Z"/><path class="cls-7" d="M21.26,56a13.66,13.66,0,0,1,2.88.3A13.87,13.87,0,0,0,13.5,66.91a8.39,8.39,0,0,0,.67,16.75H8.39a8.39,8.39,0,0,1-.67-16.75A13.85,13.85,0,0,1,21.26,56Z"/><path class="cls-8" d="M52.81,97a2.17,2.17,0,0,1-.72-2h-.16a2.15,2.15,0,0,1-.72,2c-1,1-2.87,2.88-2.87,4.89s1.83,5,1.83,5h3.68s1.83-3,1.83-5S53.82,98,52.81,97Z"/><path class="cls-9" d="M145.2,46.46a17.14,17.14,0,1,1-17.13,17.13A17.15,17.15,0,0,1,145.2,46.46ZM132.26,63.59A12.95,12.95,0,1,0,145.2,50.65,13,13,0,0,0,132.26,63.59Z"/><path class="cls-9" d="M187.08,75.69V86.44a2.1,2.1,0,1,1-4.19,0V75.69a5.91,5.91,0,1,0-11.81,0V86.44a2.1,2.1,0,0,1-4.2,0V67.69a2.1,2.1,0,0,1,2.1-2.1,2.08,2.08,0,0,1,2.08,1.93,10.09,10.09,0,0,1,16,8.17Z"/><path class="cls-9" d="M245.57,75.69V86.44a2.1,2.1,0,1,1-4.2,0V75.69a5.91,5.91,0,1,0-11.81,0V86.44a2.1,2.1,0,1,1-4.19,0V75.69a5.91,5.91,0,1,0-11.81,0V86.44a2.1,2.1,0,1,1-4.19,0V67.69a2.09,2.09,0,0,1,4.18-.17,10.05,10.05,0,0,1,13.92,2,10.09,10.09,0,0,1,18.1,6.14Z"/><path class="cls-9" d="M252.94,57.41l-1.67,2.8a2.1,2.1,0,0,1-1.8,1,2.1,2.1,0,0,1-1.8-3.17l1.66-2.8a2.1,2.1,0,0,1,3.61,2.14Z"/><path class="cls-9" d="M276.91,77.06v9.38a2.1,2.1,0,0,1-4.2,0v-.51a11.48,11.48,0,1,1,0-17.73v-.51a2.1,2.1,0,0,1,4.2,0v9.36Zm-4.2,0a7.28,7.28,0,1,0-7.28,7.29,7.28,7.28,0,0,0,7.28-7.29Z"/><path class="cls-9" d="M304.16,77.06a11.47,11.47,0,0,1-18.75,8.87V97.79a2.1,2.1,0,0,1-4.2,0V77.06h0V67.69a2.1,2.1,0,0,1,4.2,0v.51a11.47,11.47,0,0,1,18.75,8.86Zm-4.2,0a7.28,7.28,0,1,0-14.55,0v0a7.28,7.28,0,0,0,14.55,0Z"/><path class="cls-9" d="M330.52,77.06a11.47,11.47,0,0,1-18.75,8.87V97.79a2.1,2.1,0,0,1-4.2,0V77.06h0V67.69a2.1,2.1,0,1,1,4.2,0v.51a11.47,11.47,0,0,1,18.75,8.86Zm-4.2,0a7.28,7.28,0,1,0-14.55,0v0a7.28,7.28,0,0,0,14.55,0Z"/><path class="cls-9" d="M357.32,77.06a2.1,2.1,0,0,1-2.1,2.1H338.88a7.17,7.17,0,0,0,1.82,3,7.28,7.28,0,0,0,10.29,0,2.1,2.1,0,1,1,3,3,11.47,11.47,0,0,1-19.58-8,1,1,0,0,1,0-.17.86.86,0,0,1,0-.16,11.47,11.47,0,0,1,22.94.16ZM352.82,75a7.16,7.16,0,0,0-1.83-3,7.28,7.28,0,0,0-10.29,0,7.17,7.17,0,0,0-1.82,3Z"/><path class="cls-9" d="M365.93,56.34v30.1a2.1,2.1,0,1,1-4.19,0V56.34a2.1,2.1,0,1,1,4.19,0Z"/><path class="cls-9" d="M375.48,56.34v30.1a2.1,2.1,0,1,1-4.19,0V56.34a2.1,2.1,0,1,1,4.19,0Z"/><path class="cls-9" d="M403.41,77.06a2.1,2.1,0,0,1-2.1,2.1H385a7.17,7.17,0,0,0,1.82,3,7.28,7.28,0,0,0,10.29,0,2.1,2.1,0,1,1,3,3,11.47,11.47,0,0,1-19.58-8,1,1,0,0,1,0-.17.86.86,0,0,1,0-.16,11.47,11.47,0,0,1,22.94.16ZM398.91,75a7.16,7.16,0,0,0-1.83-3,7.28,7.28,0,0,0-10.29,0A7.17,7.17,0,0,0,385,75Z"/><path class="cls-9" d="M417.26,86.21A2.25,2.25,0,1,1,415,84,2.25,2.25,0,0,1,417.26,86.21Zm-4.35-6.51V56.34a2.1,2.1,0,0,1,4.2,0V79.7a2.1,2.1,0,0,1-4.2,0Z"/><line class="cls-10" x1="135.68" y1="86.21" x2="154.72" y2="86.21"/></g></g></svg>